# xmcd
#
# Track frame offsets: 
#        182
#        15265
#        33667
#        44935
#        58835
#        74832
#        89310
#        102020
#        117105
#        134785
#        149272
#        164025
#        179717
#        193432
#
# Disc length: 2654 seconds
#
# Revision: 5
# Processed by: cddbd v1.5.2PL0 Copyright (c) Steve Scherf et al.
# Submitted via: ExactAudioCopy v1.0b6
#
DISCID=e40a5c0e
DTITLE=Boca Livre - Minha Historia: Boca Livre ''14 Sucessos''
DYEAR=2000
DGENRE=MPB
TTITLE0=Toada (Na Direção do Dia)
TTITLE1=Diana
TTITLE2=Nossos Momentos
TTITLE3=Neném
TTITLE4=Mistérios
TTITLE5=Anima
TTITLE6=Bicicleta
TTITLE7=Quem Tem a Viola
TTITLE8=Panis Et Circenses
TTITLE9=Chegou no Vento
TTITLE10=Feito Mistério
TTITLE11=Boi do Maranhão
TTITLE12=Se Meu Jardim Der Flor
TTITLE13=Ponta de Areia
EXTD=YEAR: 2000
EXTT0=Z  Renato - Juca Filho - Cl udio Nucci\n
EXTT1=Toninho Horta - Fernando Brant\n
EXTT2=Haroldo Barbosa - Luiz Reis\n
EXTT3=Maur cio Maestro\n
EXTT4=Joyce - Maur cio Maestro\n
EXTT5=Jos  Renato - Milton Nascimento\n
EXTT6=Jos  Renato\n
EXTT7=Z  Renato - Juca Filho - Cl udio Nucci - \nXico Chaves\n
EXTT8=Caetano Veloso - Gilberto Gil\n
EXTT9=Vin cius Cantu ria - Xico Chaves\n
EXTT10=Louren o Baeta - Cacaso\n
EXTT11=Urro do boi - Boi do pindar  (folcore \nmaranhense) - Boi Danad
EXTT11=o - S rgio \nHabibe\n
EXTT12=Jos  Renato - Xico Chave \npartcipa  o esp.: MPB-4\n
EXTT13=Milton Nascimento - Fernando Brant\n
PLAYORDER=
